<svg width="504" height="504" viewBox="0 0 504 504" fill="none" xmlns="http://www.w3.org/2000/svg">
<path d="M252 0C112.83 0 0 112.82 0 252C0 391.18 112.83 504 252 504C391.19 504 504 391.18 504 252C504 112.82 391.18 0 252 0ZM268.812 492.16C269.871 491.722 270.945 491.273 272 490.762L269.523 485.742C264.613 488.16 259.57 489.574 254.543 489.918L254.746 492.742C253.824 492.746 252.918 492.805 252 492.805C249.148 492.805 246.332 492.691 243.504 492.598L244.238 489.164C239.394 488.121 234.535 486.078 229.797 483.082L226.801 487.812C229.543 489.555 232.34 490.98 235.157 492.141C115.767 483.855 20.1366 388.191 11.8566 268.821C12.2941 269.879 12.7355 270.953 13.255 272L18.2745 269.531C15.8487 264.621 14.4425 259.578 14.0987 254.551L11.2745 254.751C11.2628 253.833 11.2003 252.938 11.2003 252.012C11.2003 249.161 11.3175 246.333 11.419 243.505L14.8409 244.243C15.8839 239.395 17.9268 234.532 20.9268 229.794L16.1963 226.809C14.4619 229.548 13.0283 232.337 11.8604 235.153C20.1729 115.793 115.79 20.1633 235.14 11.8633C232.351 13.0156 229.59 14.4375 226.875 16.1524L229.859 20.8907C234.598 17.9063 239.465 15.8673 244.32 14.8321L243.594 11.4259C246.394 11.3243 249.18 11.2071 252.004 11.2071C252.949 11.2071 253.887 11.2696 254.836 11.2813L254.629 14.1055C259.648 14.4649 264.688 15.8789 269.602 18.3125L272.082 13.293C271.012 12.7618 269.926 12.3126 268.844 11.8711C388.194 20.1641 483.824 115.791 492.144 235.141C490.996 232.36 489.57 229.602 487.859 226.887L483.121 229.872C486.105 234.61 488.144 239.477 489.179 244.333L492.578 243.606C492.679 246.407 492.796 249.2 492.796 252.024C492.796 252.977 492.73 253.907 492.718 254.848L489.902 254.637C489.542 259.661 488.128 264.699 485.695 269.61L490.714 272.091C491.242 271.021 491.687 269.935 492.136 268.853C483.859 388.233 388.206 483.883 268.816 492.163L268.812 492.16Z" fill="white"/>
<path d="M118.14 334.98C123.472 336.402 128.96 337.734 134.581 338.996L135.796 333.523C130.253 332.285 124.843 330.976 119.585 329.574L118.14 334.98Z" fill="white"/>
<path d="M279.88 159.14C285.509 159.398 291.075 159.738 296.575 160.152L296.989 154.57C291.446 154.148 285.821 153.812 280.137 153.546L279.88 159.14Z" fill="white"/>
<path d="M123.73 167.6L125.085 173.034C130.378 171.713 135.804 170.467 141.358 169.311L140.222 163.83C134.589 164.998 129.089 166.256 123.73 167.6L123.73 167.6Z" fill="white"/>
<path d="M91.1499 326.67C96.314 328.506 101.736 330.272 107.267 331.924L108.865 326.564C103.427 324.936 98.1026 323.193 93.0326 321.389L91.1499 326.67Z" fill="white"/>
<path d="M285.71 350.2C291.402 349.88 297.015 349.489 302.554 349.02L302.085 343.442C296.593 343.911 291.026 344.294 285.401 344.614L285.71 350.2Z" fill="white"/>
<path d="M308.2 155.52L307.673 161.09C313.29 161.622 318.833 162.239 324.294 162.926L324.993 157.372C319.481 156.68 313.884 156.063 308.2 155.52L308.2 155.52Z" fill="white"/>
<path d="M207.12 154.57L207.534 160.152C213.034 159.738 218.612 159.402 224.229 159.144L223.975 153.55C218.292 153.812 212.678 154.148 207.12 154.57L207.12 154.57Z" fill="white"/>
<path d="M70.2701 185.75L72.5787 190.852C77.4381 188.652 82.6097 186.516 87.9377 184.508L85.965 179.266C80.5236 181.32 75.242 183.504 70.27 185.75H70.2701Z" fill="white"/>
<path d="M330.54 345.92L329.774 340.377C324.333 341.123 318.797 341.787 313.176 342.389L313.766 347.955C319.446 347.353 325.036 346.674 330.539 345.92L330.54 345.92Z" fill="white"/>
<path d="M96.6201 175.48L98.4013 180.789C103.491 179.082 108.85 177.433 114.335 175.894L112.816 170.5C107.249 172.07 101.808 173.746 96.6208 175.48L96.6201 175.48Z" fill="white"/>
<path d="M173.38 345.91C178.895 346.668 184.485 347.344 190.157 347.941L190.747 342.375C185.13 341.777 179.599 341.105 174.142 340.351L173.38 345.91Z" fill="white"/>
<path d="M195.89 155.52C190.21 156.063 184.613 156.68 179.101 157.376L179.8 162.93C185.261 162.243 190.804 161.629 196.425 161.094L195.89 155.52Z" fill="white"/>
<path d="M152.27 167.17C154.54 166.748 156.907 166.408 159.215 166.022C159.122 166.639 159.004 167.233 158.915 167.854L164.454 168.67C164.633 167.443 164.864 166.272 165.051 165.053C166.301 164.858 167.497 164.627 168.758 164.443L167.942 158.904C167.293 158.998 166.672 159.123 166.02 159.225C166.411 156.889 166.766 154.494 167.184 152.197L161.68 151.178C161.137 154.131 160.684 157.182 160.184 160.193C157.211 160.682 154.18 161.135 151.27 161.67L152.27 167.17Z" fill="white"/>
<path d="M201.38 349C206.923 349.48 212.54 349.875 218.224 350.191L218.544 344.602C212.915 344.281 207.356 343.891 201.856 343.422L201.38 349Z" fill="white"/>
<path d="M45.28 199.24L48.3308 203.939C52.7058 201.099 57.5144 198.318 62.6278 195.662L60.0575 190.689C54.7763 193.424 49.8115 196.299 45.2805 199.24H45.28Z" fill="white"/>
<path d="M40.4399 301.52C44.8266 304.641 49.6977 307.692 54.9319 310.598L57.6546 305.707C52.6038 302.895 47.9046 299.946 43.6816 296.95L40.4399 301.52Z" fill="white"/>
<path d="M65.02 315.82C69.9028 318.195 75.141 320.5 80.571 322.679L82.6491 317.472C77.3405 315.351 72.2351 313.097 67.4581 310.793L65.02 315.82Z" fill="white"/>
<path d="M23.9099 278.51L19.4568 281.908C22.7263 286.186 26.7537 290.408 31.4178 294.451L35.0819 290.217C30.703 286.428 26.953 282.49 23.9099 278.51Z" fill="white"/>
<path d="M23.26 217.55L27.428 221.292C30.7952 217.538 34.8186 213.839 39.401 210.276L35.9557 205.858C31.1237 209.62 26.8502 213.557 23.2607 217.549L23.26 217.55Z" fill="white"/>
<path d="M468.87 290.27L472.534 294.516C477.206 290.469 481.237 286.254 484.507 281.985L480.054 278.587C477.015 282.548 473.253 286.485 468.87 290.271V290.27Z" fill="white"/>
<path d="M433.82 185.78C428.851 183.53 423.578 181.346 418.129 179.296L416.148 184.538C421.484 186.55 426.652 188.686 431.507 190.889L433.82 185.78Z" fill="white"/>
<path d="M395.06 326.58L396.665 331.951C402.22 330.287 407.642 328.529 412.77 326.697L410.899 321.416C405.856 323.213 400.524 324.951 395.059 326.58L395.06 326.58Z" fill="white"/>
<path d="M407.48 175.5C402.277 173.758 396.835 172.086 391.285 170.516L389.766 175.91C395.227 177.445 400.59 179.098 405.7 180.809L407.48 175.5Z" fill="white"/>
<path d="M380.38 167.62C375.021 166.276 369.521 165.011 363.892 163.839L362.744 169.319C368.306 170.483 373.732 171.722 379.014 173.054L380.38 167.62Z" fill="white"/>
<path d="M368.14 333.54L369.355 339.013C374.976 337.763 380.46 336.431 385.796 335.021L384.362 329.606C379.097 330.997 373.686 332.313 368.139 333.54H368.14Z" fill="white"/>
<path d="M357.25 335.83C351.875 336.885 346.391 337.853 340.797 338.748L341.199 341.275L338.723 340.873C337.832 346.463 336.852 351.955 335.805 357.33L341.301 358.4C342.227 353.65 343.066 348.787 343.875 343.884C348.766 343.072 353.602 342.244 358.316 341.314L357.25 335.83Z" fill="white"/>
<path d="M446.27 305.75L448.993 310.648C454.2 307.746 459.079 304.695 463.485 301.57L460.247 297C456.008 300.004 451.305 302.949 446.27 305.75H446.27Z" fill="white"/>
<path d="M421.28 317.5L423.358 322.707C428.819 320.516 434.049 318.223 438.909 315.859L436.468 310.82C431.729 313.125 426.624 315.367 421.28 317.5L421.28 317.5Z" fill="white"/>
<path d="M476.64 221.35L480.808 217.619C477.23 213.619 472.964 209.686 468.124 205.908L464.679 210.326C469.257 213.889 473.28 217.604 476.64 221.349L476.64 221.35Z" fill="white"/>
<path d="M458.8 199.29C454.269 196.345 449.308 193.466 444.034 190.731L441.452 195.704C446.565 198.353 451.37 201.142 455.749 203.981L458.8 199.29Z" fill="white"/>
<path d="M268.89 153.13C257.761 152.821 246.351 152.821 235.218 153.13L235.37 158.732C246.397 158.431 257.718 158.431 268.733 158.732L268.89 153.13Z" fill="white"/>
<path d="M257.54 345.5L257.583 351.102C263.267 351.047 268.895 350.93 274.466 350.723L274.259 345.121C268.74 345.324 263.169 345.449 257.54 345.5H257.54Z" fill="white"/>
<path d="M229.46 350.71C235.042 350.917 240.671 351.05 246.343 351.101L246.398 345.499C240.769 345.444 235.199 345.315 229.671 345.12L229.46 350.71Z" fill="white"/>
<path d="M160.16 296.47C159.746 290.97 159.402 285.388 159.148 279.771L153.554 280.025C153.816 285.716 154.152 291.337 154.578 296.892L160.16 296.47Z" fill="white"/>
<path d="M333.54 135.86L339.013 134.645C337.771 129.024 336.431 123.54 335.013 118.204L329.599 119.638C330.989 124.903 332.313 130.314 333.54 135.861V135.86Z" fill="white"/>
<path d="M153.13 268.79L158.731 268.638C158.431 257.611 158.423 246.283 158.731 235.275L153.13 235.122C152.821 246.243 152.821 257.657 153.13 268.79V268.79Z" fill="white"/>
<path d="M157.38 179C156.685 184.512 156.071 190.109 155.524 195.793L161.095 196.32C161.634 190.703 162.243 185.16 162.931 179.699L157.38 179Z" fill="white"/>
<path d="M290.28 35.141L294.518 31.4769C290.475 26.805 286.256 22.7738 281.991 19.5039L278.593 23.957C282.55 26.9922 286.487 30.7539 290.281 35.141H290.28Z" fill="white"/>
<path d="M326.59 108.94L331.953 107.334C330.289 101.78 328.528 96.3575 326.699 91.2295L321.426 93.1006C323.219 98.1436 324.957 103.472 326.59 108.941L326.59 108.94Z" fill="white"/>
<path d="M162.93 324.2C162.243 318.739 161.629 313.196 161.094 307.575L155.524 308.114C156.067 313.794 156.684 319.391 157.379 324.903L162.93 324.2Z" fill="white"/>
<path d="M160.16 207.43L154.578 207.016C154.156 212.559 153.816 218.184 153.555 223.868L159.148 224.13C159.402 218.497 159.738 212.931 160.16 207.431L160.16 207.43Z" fill="white"/>
<path d="M203.98 48.254L199.289 45.2032C196.343 49.7344 193.464 54.6954 190.73 59.9692L195.703 62.5512C198.355 57.434 201.136 52.6293 203.98 48.2542V48.254Z" fill="white"/>
<path d="M173.06 124.99L167.627 123.623C166.283 128.982 165.017 134.482 163.841 140.111L169.322 141.259C170.49 135.697 171.732 130.271 173.06 124.989V124.99Z" fill="white"/>
<path d="M221.35 27.355L217.616 23.1909C213.616 26.769 209.682 31.0347 205.905 35.8749L210.323 39.3202C213.889 34.7421 217.604 30.7225 221.35 27.3552L221.35 27.355Z" fill="white"/>
<path d="M310.64 55.004C307.746 49.797 304.687 44.918 301.57 40.512L297.007 43.7503C300.015 47.9964 302.96 52.6995 305.753 57.7273L310.64 55.004Z" fill="white"/>
<path d="M180.82 98.31L175.512 96.5288C173.765 101.732 172.097 107.174 170.527 112.724L175.922 114.243C177.453 108.782 179.105 103.415 180.82 98.3093L180.82 98.31Z" fill="white"/>
<path d="M322.71 80.64C320.519 75.1791 318.218 69.949 315.866 65.089L310.827 67.5304C313.124 72.2804 315.374 77.3859 317.507 82.7214L322.71 80.64Z" fill="white"/>
<path d="M190.89 72.49L185.788 70.1814C183.538 75.1502 181.355 80.4234 179.304 85.8724L184.546 87.8529C186.558 82.5131 188.683 77.3449 190.89 72.4899V72.49Z" fill="white"/>
<path d="M278.52 480.09L281.918 484.543C286.196 481.274 290.415 477.246 294.449 472.586L290.215 468.922C286.434 473.301 282.492 477.055 278.52 480.09Z" fill="white"/>
<path d="M345.91 330.62C346.668 325.108 347.344 319.522 347.937 313.843L342.371 313.253C341.781 318.874 341.105 324.409 340.359 329.858L345.91 330.62Z" fill="white"/>
<path d="M190.7 443.94C193.427 449.221 196.305 454.186 199.247 458.717L203.946 455.666C201.102 451.291 198.317 446.486 195.669 441.369L190.7 443.94Z" fill="white"/>
<path d="M210.28 464.61L205.862 468.055C209.632 472.887 213.561 477.165 217.553 480.754L221.295 476.586C217.545 473.215 213.846 469.188 210.279 464.609L210.28 464.61Z" fill="white"/>
<path d="M184.51 416.06L179.268 418.033C181.311 423.482 183.494 428.763 185.748 433.728L190.85 431.419C188.655 426.56 186.522 421.388 184.51 416.06L184.51 416.06Z" fill="white"/>
<path d="M335.82 146.76C336.625 150.838 337.328 155.03 338.039 159.233C337.406 159.139 336.789 159.014 336.156 158.921L335.34 164.46C340.933 165.288 346.43 166.202 351.82 167.194L352.839 161.69C349.917 161.151 346.886 160.698 343.898 160.206C343.093 155.3 342.253 150.428 341.323 145.698L335.82 146.76Z" fill="white"/>
<path d="M350.2 218.29C349.887 212.599 349.489 206.985 349.02 201.446L343.442 201.915C343.907 207.407 344.298 212.974 344.614 218.599L350.2 218.29Z" fill="white"/>
<path d="M340.38 174.23C341.126 179.671 341.798 185.207 342.384 190.828L347.95 190.238C347.356 184.559 346.673 178.972 345.923 173.465L340.38 174.23Z" fill="white"/>
<path d="M350.72 229.54L345.126 229.747C345.329 235.263 345.462 240.837 345.505 246.462L351.107 246.419C351.056 240.739 350.927 235.11 350.72 229.54V229.54Z" fill="white"/>
<path d="M175.89 389.67L170.496 391.19C172.062 396.744 173.738 402.193 175.472 407.38L180.781 405.599C179.078 400.51 177.437 395.15 175.89 389.669L175.89 389.67Z" fill="white"/>
<path d="M169.31 362.64L163.83 363.777C165.001 369.41 166.267 374.91 167.611 380.269L173.044 378.913C171.712 373.62 170.466 368.194 169.31 362.64L169.31 362.64Z" fill="white"/>
<path d="M350.2 285.79L344.61 285.47C344.29 291.091 343.899 296.658 343.434 302.158L349.012 302.626C349.485 297.091 349.887 291.47 350.2 285.79V285.79Z" fill="white"/>
<path d="M329.58 384.42L334.99 385.865C336.412 380.541 337.744 375.045 338.998 369.424L333.525 368.209C332.295 373.756 330.978 379.174 329.58 384.42V384.42Z" fill="white"/>
<path d="M351.1 257.67L345.498 257.615C345.444 263.236 345.319 268.814 345.119 274.338L350.713 274.545C350.924 268.963 351.053 263.33 351.1 257.67V257.67Z" fill="white"/>
<path d="M321.39 410.97L326.663 412.853C328.495 407.689 330.265 402.275 331.917 396.744L326.554 395.146C324.925 400.576 323.187 405.9 321.39 410.97L321.39 410.97Z" fill="white"/>
<path d="M167.17 351.73C166.178 346.336 165.272 340.839 164.443 335.25L158.904 336.066C159.006 336.734 159.127 337.367 159.228 338.039C155.006 337.328 150.783 336.606 146.677 335.809L145.607 341.297C150.373 342.238 155.263 343.078 160.197 343.891C160.685 346.844 161.131 349.848 161.666 352.738L167.17 351.73Z" fill="white"/>
<path d="M310.79 436.54L315.825 438.981C318.192 434.103 320.501 428.86 322.681 423.43L317.478 421.352C315.353 426.665 313.099 431.774 310.79 436.54L310.79 436.54Z" fill="white"/>
<path d="M296.95 460.32L301.512 463.558C304.626 459.172 307.684 454.308 310.594 449.066L305.7 446.344C302.891 451.394 299.95 456.098 296.95 460.321V460.32Z" fill="white"/>
</svg>
