<svg width="31" height="31" viewBox="0 0 31 31" fill="none" xmlns="http://www.w3.org/2000/svg">
<circle cx="15.135" cy="15.135" r="15.135" fill="#0052B5"/>
<path d="M15.0578 8.99091L13.7228 9.66671L14.1622 8.32621L13.2656 7.43846L14.6039 7.4318L15.13 6.0459L15.7191 7.42626L16.8344 7.42071L15.9466 8.31734L16.3994 9.6534L15.0578 8.99091Z" fill="#FFDB44"/>
<path d="M15.0578 21.564L13.7228 20.8882L14.1622 22.2287L13.2656 23.1164L14.6039 23.1231L15.13 24.509L15.7191 23.1286L16.8344 23.1342L15.9466 22.2376L16.3994 20.9015L15.0578 21.564Z" fill="#FFDB44"/>
<path d="M21.2586 15.2566L20.3199 14.0914L21.7225 14.2424L22.4044 13.1808L22.6892 14.4884L24.1542 14.7148L22.9266 15.5781L23.1639 16.6678L22.1023 15.9859L20.8896 16.7066L21.2586 15.2566Z" fill="#FFDB44"/>
<path d="M19.6019 11.0937L18.1336 10.8057L19.3044 10.0188L19.1433 8.76739L20.2027 9.58511L21.4699 8.81576L21.0856 10.2665L21.9684 10.948L20.717 11.1091L20.2524 12.4411L19.6019 11.0937Z" fill="#FFDB44"/>
<path d="M19.6215 19.4873L20.2594 18.1338L20.7365 19.4613L21.9894 19.6107L20.9377 20.4383L21.3743 21.855L20.0613 21.1281L19.1849 21.8178L19.3343 20.5649L18.156 19.7891L19.6215 19.4873Z" fill="#FFDB44"/>
<path d="M21.2586 15.2566L20.3199 14.0914L21.7225 14.2424L22.4044 13.1808L22.6892 14.4884L24.1542 14.7148L22.9266 15.5781L23.1639 16.6678L22.1023 15.9859L20.8896 16.7066L21.2586 15.2566Z" fill="#FFDB44"/>
<path d="M9.05263 15.2566L9.99129 14.0914L8.58871 14.2424L7.90684 13.1808L7.622 14.4884L6.15698 14.7148L7.38464 15.5781L7.14728 16.6678L8.20892 15.9859L9.42162 16.7066L9.05263 15.2566Z" fill="#FFDB44"/>
<path d="M10.7093 11.0937L12.1776 10.8057L11.0067 10.0188L11.1679 8.76739L10.1085 9.58511L8.84132 8.81576L9.2256 10.2665L8.34275 10.948L9.59418 11.1091L10.0588 12.4411L10.7093 11.0937Z" fill="#FFDB44"/>
<path d="M10.6897 19.4873L10.0518 18.1338L9.5747 19.4613L8.32181 19.6107L9.37348 20.4383L8.93685 21.855L10.2499 21.1281L11.1263 21.8178L10.9769 20.5649L12.1552 19.7891L10.6897 19.4873Z" fill="#FFDB44"/>
<path d="M9.05263 15.2566L9.99129 14.0914L8.58871 14.2424L7.90684 13.1808L7.622 14.4884L6.15698 14.7148L7.38464 15.5781L7.14728 16.6678L8.20892 15.9859L9.42162 16.7066L9.05263 15.2566Z" fill="#FFDB44"/>
</svg>
