<svg width="119" height="48" viewBox="0 0 119 48" fill="none" xmlns="http://www.w3.org/2000/svg">
<path fill-rule="evenodd" clip-rule="evenodd" d="M81.9333 15.9895C78.7646 6.68945 69.9546 0 59.5821 0C49.2097 0 40.3997 6.68945 37.231 15.9895H38.8623C41.9646 7.55434 50.0707 1.53747 59.5821 1.53747C69.0936 1.53747 77.1997 7.55434 80.3019 15.9895H81.9333ZM39.705 33.2092C43.276 40.588 50.8348 45.677 59.5821 45.677C68.3295 45.677 75.8883 40.588 79.4593 33.2092H81.1549C77.4761 41.4618 69.201 47.2145 59.5821 47.2145C49.9633 47.2145 41.6881 41.4618 38.0094 33.2092H39.705Z" fill="white"/>
<path d="M16.4028 21.7157H14.794V28.834H16.4028V25.2748C16.4028 24.6057 16.6163 24.022 17.0149 23.6234C17.3709 23.2675 17.8691 23.0539 18.4955 23.0539C19.0223 23.0539 19.4067 23.1821 19.6772 23.4526C19.9904 23.7658 20.1185 24.2498 20.1328 24.8762V28.834H21.7415V24.5488C21.7415 23.6092 21.4568 22.8546 20.93 22.3279C20.4317 21.8438 19.7341 21.5591 18.8515 21.5591C17.8834 21.5591 17.1146 21.8865 16.5594 22.4275C16.5024 22.4987 16.4597 22.5556 16.4028 22.6126V21.7157ZM27.0477 29.0048C28.1012 29.0048 29.0551 28.5777 29.7384 27.9086C30.4076 27.2252 30.8204 26.2999 30.8204 25.2748C30.8204 24.2498 30.4076 23.3244 29.7527 22.6553C29.0693 21.9719 28.1297 21.5591 27.1047 21.5591C26.0227 21.5591 25.0688 21.9577 24.3713 22.6553C23.7021 23.3244 23.2893 24.2498 23.2893 25.2748C23.2893 26.2999 23.7021 27.2252 24.3713 27.9086C25.0404 28.592 25.9942 29.0048 27.0477 29.0048ZM27.0477 27.51C26.4213 27.51 25.8946 27.2964 25.5244 26.912C25.1258 26.5134 24.898 25.944 24.898 25.2748C24.898 24.62 25.1258 24.0363 25.5244 23.6519C25.8946 23.2675 26.4071 23.0539 27.0477 23.0539C27.6884 23.0539 28.2294 23.2675 28.5995 23.6519C28.9981 24.0363 29.2117 24.6057 29.2117 25.2748C29.2117 25.9297 28.9839 26.5134 28.5853 26.912C28.2009 27.2822 27.6884 27.51 27.0477 27.51ZM33.1748 21.7157H31.5803L33.6019 28.834H35.7232L36.378 26.5561L37.2322 23.0966H37.2749L38.1291 26.5561L38.784 28.834H40.9053L42.9269 21.7157H41.3324L40.7487 23.8227L39.8233 27.1968L38.9122 23.8227L38.3 21.7157H36.2072L35.595 23.8227L34.6839 27.211L33.7585 23.8227L33.1748 21.7157ZM48.8335 20.1781C49.1467 20.1781 49.4172 20.0642 49.6023 19.8792C49.7874 19.6941 49.887 19.4521 49.887 19.1673C49.887 18.8968 49.7874 18.6691 49.6165 18.484C49.4314 18.2989 49.1325 18.185 48.8335 18.185C48.5345 18.185 48.264 18.3131 48.079 18.4982C47.8939 18.6833 47.7942 18.9111 47.7942 19.1673C47.7942 19.4521 47.9081 19.7083 48.0932 19.8792C48.2783 20.0642 48.5345 20.1781 48.8335 20.1781ZM49.645 21.7157H48.0363V28.834H49.645V21.7157ZM53.5514 21.7157H51.9426V28.834H53.5514V25.2748C53.5514 24.6057 53.7649 24.022 54.1636 23.6234C54.5195 23.2675 55.0177 23.0539 55.6442 23.0539C56.1709 23.0539 56.5553 23.1821 56.8258 23.4526C57.139 23.7658 57.2671 24.2498 57.2814 24.8762V28.834H58.8901V24.5488C58.8901 23.6092 58.6054 22.8546 58.0786 22.3279C57.5803 21.8438 56.8827 21.5591 56.0001 21.5591C55.032 21.5591 54.2632 21.8865 53.708 22.4275C53.651 22.4987 53.6083 22.5556 53.5514 22.6126V21.7157ZM65.0455 26.8266L64.1059 27.8659C64.9032 28.6062 65.9852 29.0048 67.1241 29.0048C68.1349 29.0048 68.9606 28.7059 69.4731 28.1791C69.829 27.8232 70.0426 27.3534 70.0426 26.8124C70.0426 26.3141 69.8575 25.8728 69.5016 25.5169C69.1314 25.1467 68.562 24.8477 67.7932 24.62L66.7255 24.3067C66.455 24.2213 66.2556 24.1074 66.1275 23.9793C65.9994 23.8512 65.9424 23.7088 65.9424 23.5664C65.9424 23.4241 65.9852 23.3102 66.0848 23.2105C66.2841 23.0255 66.64 22.9258 67.1098 22.9258C67.779 22.9258 68.4196 23.1393 68.9464 23.538L69.829 22.4275C69.1314 21.8865 68.1776 21.5591 67.181 21.5591C66.2272 21.5591 65.4442 21.8581 64.9459 22.3563C64.59 22.7122 64.3907 23.1678 64.3907 23.6661C64.3907 24.1501 64.5757 24.563 64.9174 24.9047C65.2449 25.2321 65.7289 25.5026 66.3695 25.6735L67.4515 25.9867C67.8786 26.1006 68.1634 26.2145 68.3342 26.3853C68.4481 26.4992 68.505 26.6415 68.505 26.8124C68.505 26.9975 68.4338 27.1541 68.3057 27.2822C68.0922 27.51 67.6935 27.6381 67.1953 27.6381C66.4265 27.6381 65.615 27.3249 65.0455 26.8266ZM73.3078 21.7157H71.699V32.3931H73.3078V27.9371C73.3505 28.0083 73.4217 28.0794 73.4786 28.1506C73.9769 28.6347 74.8311 29.0048 75.7565 29.0048C76.6961 29.0048 77.5076 28.6489 78.0913 28.0652C78.7746 27.3819 79.1732 26.3853 79.1732 25.2748C79.1732 24.1644 78.7746 23.1821 78.0913 22.5129C77.5076 21.9292 76.7103 21.5591 75.7565 21.5591C74.6887 21.5591 73.863 21.9577 73.3078 22.6126V21.7157ZM75.4005 27.51C74.7741 27.51 74.2331 27.2964 73.863 26.912C73.4644 26.5134 73.2366 25.944 73.2366 25.2748C73.2366 24.6342 73.4644 24.0647 73.863 23.6519C74.2474 23.2817 74.7599 23.0539 75.4005 23.0539C76.027 23.0539 76.5537 23.2675 76.9381 23.6519C77.3367 24.0505 77.5645 24.6057 77.5645 25.2748C77.5645 25.944 77.3367 26.5134 76.9381 26.912C76.5537 27.2822 76.027 27.51 75.4005 27.51ZM83.7498 29.0048C84.8317 29.0048 85.6432 28.592 86.2127 27.9371V28.834H87.8214V21.7157H86.2127V22.6126C85.6432 21.9577 84.8317 21.5591 83.7498 21.5591C82.8101 21.5591 81.9986 21.915 81.4007 22.4987C80.7458 23.1678 80.3472 24.1359 80.3472 25.2748C80.3472 26.3711 80.7458 27.3819 81.4292 28.0794C82.0129 28.6631 82.8101 29.0048 83.7498 29.0048ZM84.1199 27.51C83.4935 27.51 82.9667 27.2822 82.5823 26.912C82.198 26.5277 81.9559 25.9724 81.9559 25.3318C81.9559 24.6484 82.1553 24.0647 82.5681 23.6661C82.9383 23.2959 83.4793 23.0539 84.1199 23.0539C84.7605 23.0539 85.2873 23.2675 85.6575 23.6519C86.0418 24.0363 86.2696 24.6057 86.2839 25.2748C86.2696 25.9297 86.0561 26.5134 85.6432 26.912C85.2731 27.2822 84.7605 27.51 84.1199 27.51ZM89.5648 25.2748C89.5648 26.2999 89.9777 27.2252 90.6468 27.8944C91.3302 28.5777 92.284 29.0048 93.366 29.0048C94.9463 29.0048 95.9286 28.1933 96.3984 27.6666L95.2737 26.6558C94.9036 27.0259 94.2772 27.51 93.3802 27.51C92.7111 27.51 92.1701 27.2822 91.7857 26.8978C91.4014 26.5134 91.1736 25.944 91.1736 25.2748C91.1736 24.62 91.3871 24.0505 91.7857 23.6661C92.1701 23.2817 92.7111 23.0539 93.3802 23.0539C94.2487 23.0539 94.8893 23.5095 95.288 23.9366L96.4696 22.997L96.2418 22.755C95.7008 22.214 94.7754 21.5591 93.366 21.5591C92.284 21.5591 91.3302 21.9862 90.6468 22.6695C89.9777 23.3387 89.5648 24.2498 89.5648 25.2748ZM97.5312 25.2748C97.5312 26.3426 97.9299 27.268 98.5847 27.9371C99.2681 28.6062 100.222 29.0048 101.304 29.0048C102.471 29.0048 103.354 28.6062 104.151 27.8232C104.222 27.7378 104.294 27.6523 104.365 27.5812L103.169 26.5988C103.126 26.6558 103.069 26.727 102.998 26.7839C102.656 27.1398 102.101 27.51 101.304 27.51C100.678 27.51 100.151 27.3107 99.7664 26.9263C99.4816 26.6415 99.2823 26.2714 99.1969 25.8301H104.749C104.778 25.645 104.792 25.4599 104.792 25.2748C104.792 24.1644 104.393 23.1963 103.724 22.5272C103.126 21.915 102.3 21.5591 101.304 21.5591C100.25 21.5591 99.2966 21.9862 98.6132 22.6695C97.9441 23.3244 97.5312 24.2498 97.5312 25.2748ZM103.155 24.62H99.1969C99.2966 24.2071 99.4959 23.8654 99.7521 23.5949C100.122 23.2248 100.621 23.0255 101.233 23.0255C101.802 23.0255 102.272 23.2248 102.614 23.5664C102.884 23.8369 103.069 24.1786 103.155 24.62Z" fill="white"/>
</svg>
