<svg width="55" height="69" viewBox="0 0 55 69" fill="none" xmlns="http://www.w3.org/2000/svg">
<path fill-rule="evenodd" clip-rule="evenodd" d="M39 45.0271L27.5001 57L16 45.0271H24.1318V31H30.8683V45.0271H39Z" fill="#9E93EB"/>
<path fill-rule="evenodd" clip-rule="evenodd" d="M53.9932 18.2605C54.6377 18.9075 55 19.785 55 20.7V62.1C55 65.9109 51.9221 69 48.125 69H6.875C3.07804 69 0 65.9109 0 62.1V6.9C0 3.08923 3.07804 0 6.875 0H34.375C35.2866 0 36.1611 0.363492 36.8057 1.01047L53.9932 18.2605ZM48.125 62.1V24.15H30.9375V6.9H6.875V62.1H48.125ZM37.8125 11.779V17.25H43.2637L37.8125 11.779Z" fill="white"/>
</svg>
