<svg width="40" height="41" viewBox="0 0 40 41" fill="none" xmlns="http://www.w3.org/2000/svg">
<circle cx="20.001" cy="20.0156" r="20" fill="#F2F0F2"/>
<mask id="mask0_81_238" style="mask-type:alpha" maskUnits="userSpaceOnUse" x="0" y="0" width="41" height="41">
<circle cx="20.001" cy="20.0156" r="20" fill="#FCFCFC"/>
</mask>
<g mask="url(#mask0_81_238)">
<rect x="6.49902" y="35.5156" width="27.5" height="5" fill="#D90026"/>
<rect x="6.49902" y="35.5156" width="27.5" height="5" fill="#D90026"/>
<rect x="0.500732" y="25.5176" width="39.5" height="5" fill="#D90026"/>
<rect x="0.500732" y="25.5176" width="39.5" height="5" fill="#D90026"/>
<rect x="0.500732" y="15.0166" width="39.5" height="5" fill="#D90026"/>
<rect x="0.500732" y="15.0166" width="39.5" height="5" fill="#D90026"/>
<rect x="0.500732" y="5.01953" width="39.5" height="5" fill="#D90026"/>
<rect x="0.500732" y="5.01953" width="39.5" height="5" fill="#D90026"/>
<rect x="0.000976562" y="0.015625" width="20.5" height="20" fill="#0052B5"/>
<path d="M16.4966 16.7676L14.9966 17.5176L15.4966 16.0176L14.4966 15.0176H15.9966L16.4966 13.5176L17.2466 15.0176H18.4966L17.4966 16.0176L17.9966 17.5176L16.4966 16.7676Z" fill="#EFEFEF"/>
<path d="M9.51953 16.7676L8.01953 17.5176L8.51953 16.0176L7.51953 15.0176H9.01953L9.51953 13.5176L10.2695 15.0176H11.5195L10.5195 16.0176L11.0195 17.5176L9.51953 16.7676Z" fill="#EFEFEF"/>
<path d="M2.50073 16.7676L1.00073 17.5176L1.50073 16.0176L0.500732 15.0176H2.00073L2.50073 13.5176L3.25073 15.0176H4.50073L3.50073 16.0176L4.00073 17.5176L2.50073 16.7676Z" fill="#EFEFEF"/>
<path d="M16.4966 11.2578L14.9966 12.0078L15.4966 10.5078L14.4966 9.50781H15.9966L16.4966 8.00781L17.2466 9.50781H18.4966L17.4966 10.5078L17.9966 12.0078L16.4966 11.2578Z" fill="#EFEFEF"/>
<path d="M16.4966 5.76465L14.9966 6.51465L15.4966 5.01465L14.4966 4.01465H15.9966L16.4966 2.51465L17.2466 4.01465H18.4966L17.4966 5.01465L17.9966 6.51465L16.4966 5.76465Z" fill="#EFEFEF"/>
<path d="M9.51953 5.76465L8.01953 6.51465L8.51953 5.01465L7.51953 4.01465H9.01953L9.51953 2.51465L10.2695 4.01465H11.5195L10.5195 5.01465L11.0195 6.51465L9.51953 5.76465Z" fill="#EFEFEF"/>
<path d="M9.51953 11.2578L8.01953 12.0078L8.51953 10.5078L7.51953 9.50781H9.01953L9.51953 8.00781L10.2695 9.50781H11.5195L10.5195 10.5078L11.0195 12.0078L9.51953 11.2578Z" fill="#EFEFEF"/>
<path d="M2.50073 11.2578L1.00073 12.0078L1.50073 10.5078L0.500732 9.50781H2.00073L2.50073 8.00781L3.25073 9.50781H4.50073L3.50073 10.5078L4.00073 12.0078L2.50073 11.2578Z" fill="#EFEFEF"/>
</g>
</svg>
