<svg width="192" height="24" viewBox="0 0 192 24" fill="none" xmlns="http://www.w3.org/2000/svg">
<path d="M44.746 8.87305H28.5116L27.9102 9.32981V23.9949H32.4042V18.4955L32.8332 18.1052H44.7466C47.7546 18.1052 49.1648 17.2834 49.1648 15.1748V11.8076C49.1643 9.69545 47.7546 8.87305 44.746 8.87305ZM44.746 14.2948C44.746 15.2882 44.0988 15.4946 42.6886 15.4946H32.8824L32.4037 15.0219V11.8805L32.8326 11.4819H42.6886C44.0988 11.4819 44.746 11.6859 44.746 12.6841V14.2948Z" fill="#084BCD"/>
<path d="M57.3605 11.6481L61.2276 17.4014L61.0134 17.9587H52.4611L50.2781 20.6857H63.0083L63.8906 21.2312L65.867 23.9994H71.01L59.7369 8.68652" fill="#084BCD"/>
<path d="M108.502 21.0208V16.9506L108.965 16.545H117.569V13.9531H103.932V23.9989H124.047V21.4194H108.985" fill="#084BCD"/>
<path d="M124.26 8.87305H103.932V11.7229H124.26V8.87305Z" fill="#084BCD"/>
<path d="M81.2595 11.5703H97.6357C97.3833 9.45581 96.0912 8.86914 92.8134 8.86914H81.0853C77.3866 8.86914 76.2068 9.60219 76.2068 12.4444V20.4186C76.2068 23.2638 77.3866 23.9969 81.0853 23.9969H92.8134C96.1392 23.9969 97.4128 23.3626 97.4997 21.1693H81.2595L80.7779 20.709V11.8783" fill="#084BCD"/>
<path d="M16.981 14.7635H5.06764L4.71682 14.3714V11.7837L5.0659 11.5098H21.126L21.3454 10.9648C20.7984 9.53576 19.3818 8.86914 16.7512 8.86914H5.59502C1.89868 8.86914 0.717129 9.60219 0.717129 12.4444V14.1163C0.717129 16.9621 1.89868 17.6939 5.59502 17.6939H17.4818L17.8552 18.0267V20.7319L17.5507 21.154H3.95381V21.1411H0.39236C0.39236 21.1411 -0.0151922 21.3486 0.000438375 21.4456C0.304366 23.4337 1.63817 23.9969 4.83144 23.9969H16.981C20.6768 23.9969 21.8936 23.2638 21.8936 20.4186V18.3359C21.8936 15.4954 20.6768 14.7635 16.981 14.7635Z" fill="#084BCD"/>
<path d="M137.048 8.81055H130.361L129.998 9.51185L137.424 15.0088C138.831 14.1817 140.361 13.3435 142.026 12.5163" fill="#084BCD"/>
<path d="M143.04 19.1662L149.567 23.9995H156.336L156.616 23.3593L146.87 16.1152C145.575 17.0799 144.296 18.0986 143.04 19.1662Z" fill="#084BCD"/>
<path d="M136.053 23.9878H130.002L129.491 23.1748C133.605 19.1415 152.005 1.85231 192 0C192 0 158.43 1.14983 136.053 23.9878Z" fill="#A7A9AC"/>
</svg>
