<svg width="82" height="73" viewBox="0 0 82 73" fill="none" xmlns="http://www.w3.org/2000/svg">
<path fill-rule="evenodd" clip-rule="evenodd" d="M25.8125 7.25456V0H33.1875V7.25456H59V14.5091H48.7539C46.5882 20.2586 41.9885 28.9127 34.2945 38.2725C37.1825 41.4471 40.4386 44.6638 44.0284 47.7017L41.1459 54.7912C36.8027 51.2988 32.8865 47.5384 29.4393 43.8089C24.0275 49.6005 17.4306 55.4942 9.50151 61L5.24849 55.073C13.0467 49.6586 19.4426 43.8716 24.6086 38.2537C19.0593 31.4725 15.2282 25.3242 13.3948 21.7662H21.829C23.6044 24.693 26.1768 28.4861 29.4609 32.6002C35.0563 25.601 38.7136 19.1865 40.7992 14.5091H0V7.25456H25.8125Z" fill="black" fill-opacity="0.42"/>
<path fill-rule="evenodd" clip-rule="evenodd" d="M56.5973 29H65.3991L82 73H74.1204L69.9696 61.9986H52.0267L47.8796 72.9901H40L56.5973 29ZM54.7934 54.6656H67.2029L60.9982 38.2202L54.7934 54.6656Z" fill="black"/>
</svg>
