<svg width="600" height="650" viewBox="0 0 600 650" fill="none" xmlns="http://www.w3.org/2000/svg">
<path d="M285.484 650L292.742 510.806C292.847 508.517 292.438 506.234 291.544 504.124C290.65 502.014 289.295 500.131 287.577 498.614C285.859 497.098 283.823 495.986 281.618 495.36C279.414 494.735 277.097 494.612 274.839 495L136.29 519.355L155 467.742C155.759 465.688 155.856 463.448 155.278 461.337C154.699 459.225 153.474 457.348 151.774 455.968L0 333.065L34.1935 317.097C36.5029 316.005 38.3344 314.109 39.3442 311.762C40.3539 309.416 40.4724 306.782 39.6774 304.355L9.67742 212.097L97.0968 230.645C99.4652 231.139 101.931 230.798 104.077 229.681C106.223 228.564 107.917 226.739 108.871 224.516L125.806 184.677L194.032 257.903C195.592 259.549 197.644 260.644 199.879 261.025C202.114 261.406 204.412 261.052 206.429 260.016C208.446 258.981 210.073 257.319 211.066 255.28C212.059 253.242 212.364 250.936 211.935 248.71L179.032 79.0323L231.774 109.516C233.012 110.242 234.387 110.706 235.811 110.879C237.236 111.052 238.681 110.93 240.057 110.522C241.433 110.114 242.711 109.427 243.811 108.505C244.911 107.583 245.81 106.445 246.452 105.161L300 0L353.548 105.161C354.19 106.445 355.089 107.583 356.189 108.505C357.289 109.427 358.567 110.114 359.943 110.522C361.319 110.93 362.764 111.052 364.189 110.879C365.613 110.706 366.988 110.242 368.226 109.516L420.968 79.0323L388.065 248.71C387.636 250.936 387.941 253.242 388.934 255.28C389.927 257.319 391.553 258.981 393.571 260.016C395.588 261.052 397.886 261.406 400.121 261.025C402.356 260.644 404.408 259.549 405.968 257.903L474.194 184.677L491.129 224.516C492.083 226.739 493.777 228.564 495.923 229.681C498.069 230.798 500.535 231.139 502.903 230.645L590.323 212.097L560.323 304.355C559.528 306.782 559.646 309.416 560.656 311.762C561.666 314.109 563.497 316.005 565.806 317.097L600 333.065L448.226 455.968C446.526 457.348 445.301 459.225 444.722 461.337C444.144 463.448 444.241 465.688 445 467.742L463.71 519.355L325.161 495C322.903 494.612 320.586 494.735 318.382 495.36C316.177 495.986 314.141 497.098 312.423 498.614C310.705 500.131 309.35 502.014 308.456 504.124C307.562 506.234 307.153 508.517 307.258 510.806L314.516 650H285.484Z" fill="white"/>
</svg>
