<svg width="51" height="63" viewBox="0 0 51 63" fill="none" xmlns="http://www.w3.org/2000/svg">
<path fill-rule="evenodd" clip-rule="evenodd" d="M0 25.8659C0 11.9204 11.2348 0.615356 25.0938 0.615356C38.9527 0.615356 50.1875 11.9204 50.1875 25.8659C50.1875 29.0062 49.0752 32.3774 47.5784 35.5641C46.0561 38.805 43.9994 42.1374 41.8178 45.2751C37.4527 51.553 32.4029 57.3133 29.5868 60.3914C27.1552 63.049 23.0323 63.049 20.6007 60.3914C17.7844 57.3133 12.7347 51.553 8.3698 45.2751C6.18825 42.1374 4.1314 38.805 2.60919 35.5641C1.11222 32.3774 0 29.0062 0 25.8659Z" fill="#E75574"/>
<circle cx="24.6166" cy="24.7439" r="10.6166" fill="white"/>
</svg>
