<svg width="67" height="90" viewBox="0 0 67 90" fill="none" xmlns="http://www.w3.org/2000/svg">
<path fill-rule="evenodd" clip-rule="evenodd" d="M20 16.75C17.7908 16.75 16 18.4289 16 20.5C16 22.5711 17.7908 24.25 20 24.25C22.2092 24.25 24 22.5711 24 20.5C24 18.4289 22.2092 16.75 20 16.75ZM12 20.5C12 16.3579 15.5817 13 20 13C24.4182 13 28 16.3579 28 20.5C28 24.6421 24.4182 28 20 28C15.5817 28 12 24.6421 12 20.5Z" fill="white"/>
<path fill-rule="evenodd" clip-rule="evenodd" d="M15.1203 0H24.8797L25.9108 6.38661C27.0698 6.87933 28.1548 7.51218 29.1453 8.26382L35.1202 5.97761L40 14.5225L35.0892 18.582C35.1673 19.211 35.2074 19.8512 35.2074 20.5C35.2074 21.1488 35.1673 21.789 35.0892 22.4182L40 26.4776L35.1188 35.0249L29.1522 32.7309C28.1599 33.4849 27.0724 34.1196 25.9108 34.6134L24.8797 41H15.1203L14.0892 34.6134C12.9302 34.1206 11.8451 33.4878 10.8547 32.7362L4.87964 35.0224L0 26.4776L4.9108 22.418C4.83263 21.789 4.79245 21.1488 4.79245 20.5C4.79245 19.8512 4.83263 19.211 4.9108 18.5818L0 14.5224L4.88104 5.97507L10.8477 8.26913C11.84 7.51518 12.9275 6.88048 14.0892 6.38661L15.1203 0ZM18.5674 4.1L17.703 9.45321L16.5284 9.83971C15.0496 10.3262 13.7055 11.1162 12.5693 12.138L11.6504 12.9642L6.66674 11.0481L5.23555 13.5543L9.34417 16.9506L9.08791 18.1724C8.93079 18.9215 8.84778 19.6999 8.84778 20.5C8.84778 21.3001 8.93079 22.0785 9.08791 22.8276L9.34415 24.0494L5.23555 27.4456L6.66814 29.9542L11.6588 28.0446L12.5759 28.8679C13.7107 29.8867 15.0525 30.6748 16.5284 31.1602L17.703 31.5468L18.5674 36.9H21.4325L22.2969 31.5468L23.4715 31.1602C24.9503 30.6737 26.2944 29.8837 27.4307 28.862L28.3494 28.0358L33.3332 29.9519L34.7644 27.4458L30.6557 24.0494L30.912 22.8276C31.0692 22.0785 31.1521 21.3001 31.1521 20.5C31.1521 19.6999 31.0692 18.9215 30.912 18.1724L30.6557 16.9506L34.7644 13.5544L33.3318 11.0457L28.3411 12.9553L27.424 12.132C26.2891 11.1132 24.9474 10.3253 23.4715 9.83971L22.2969 9.45321L21.4325 4.1H18.5674Z" fill="#9E93EB"/>
<path fill-rule="evenodd" clip-rule="evenodd" d="M22.2915 89.8333H50.6617C55.9238 89.8333 60.5754 86.4136 62.1453 81.3909L66.33 67.9993C67.5199 64.1921 66.9255 60.0509 64.7127 56.7317C62.0023 52.6661 57.2692 50.4288 52.407 50.9149L48.4885 51.3068L50.5452 46.679C52.3331 42.6562 49.3885 38.125 44.986 38.125H43.1224C40.6483 38.125 38.28 39.1296 36.5609 40.9087L25.4867 52.3673L22.2915 52.567V89.8333ZM28.3748 83.75V58.1327L40.9351 45.1362C41.5081 44.5432 42.2978 44.2083 43.1224 44.2083H44.986L40.8037 53.6188C40.3636 54.609 40.4834 55.7586 41.1185 56.6366C41.7536 57.5146 42.8075 57.9886 43.8858 57.8807L53.0123 56.9681C55.6355 56.7058 58.189 57.9128 59.6511 60.1062C60.8449 61.8968 61.1655 64.1309 60.5234 66.185L56.3387 79.5762C55.5628 82.0594 53.2633 83.75 50.6617 83.75H28.3748Z" fill="white"/>
<path fill-rule="evenodd" clip-rule="evenodd" d="M7.0835 83.75C7.0835 87.1098 9.8071 89.8333 13.1668 89.8333H28.3752V52.1868L12.7874 53.161C9.58122 53.3614 7.0835 56.0201 7.0835 59.2325V83.75ZM22.2918 83.75H13.1668V59.2325L22.2918 58.6622V83.75Z" fill="#9E93EB"/>
</svg>
