<svg width="78" height="84" viewBox="0 0 78 84" fill="none" xmlns="http://www.w3.org/2000/svg">
<path d="M0 48.2083C0 45.6777 1.00528 43.2508 2.79469 41.4614C4.5841 39.6719 7.01106 38.6667 9.54167 38.6667H19.0833V48.2083C19.0833 50.7389 18.0781 53.1659 16.2886 54.9553C14.4992 56.7447 12.0723 57.75 9.54167 57.75C7.01106 57.75 4.5841 56.7447 2.79469 54.9553C1.00528 53.1659 0 50.7389 0 48.2083ZM9.54167 38.6667H19.0833V19.5833H9.54167C7.01106 19.5833 4.5841 20.5886 2.79469 22.378C1.00528 24.1674 0 26.5944 0 29.125C0 31.6556 1.00528 34.0826 2.79469 35.872C4.5841 37.6614 7.01106 38.6667 9.54167 38.6667ZM9.54167 19.5833H19.0833V0.5H9.54167C7.01106 0.5 4.5841 1.50528 2.79469 3.29469C1.00528 5.0841 0 7.51106 0 10.0417C0 12.5723 1.00528 14.9992 2.79469 16.7886C4.5841 18.5781 7.01106 19.5833 9.54167 19.5833ZM19.0833 19.5833H28.625C31.1556 19.5833 33.5826 18.5781 35.372 16.7886C37.1614 14.9992 38.1667 12.5723 38.1667 10.0417C38.1667 7.51106 37.1614 5.0841 35.372 3.29469C33.5826 1.50528 31.1556 0.5 28.625 0.5H19.0833V19.5833ZM28.625 19.5833C26.7378 19.5833 24.8931 20.1429 23.3239 21.1914C21.7548 22.2398 20.5318 23.7301 19.8096 25.4736C19.0875 27.2171 18.8985 29.1356 19.2667 30.9865C19.6348 32.8374 20.5436 34.5375 21.878 35.872C23.2125 37.2064 24.9126 38.1152 26.7635 38.4833C28.6144 38.8515 30.5329 38.6625 32.2764 37.9404C34.0199 37.2182 35.5102 35.9952 36.5586 34.4261C37.6071 32.8569 38.1667 31.0122 38.1667 29.125C38.1667 26.5944 37.1614 24.1674 35.372 22.378C33.5826 20.5886 31.1556 19.5833 28.625 19.5833Z" fill="white"/>
<path d="M25 31V84H78V31H25ZM75.6679 81.6683H27.3317V33.3321H75.6678V81.6683H75.6679Z" fill="white" fill-opacity="0.5"/>
<path d="M37.879 43.8032C37.879 43.6205 37.9104 43.548 38.067 43.548C39.2587 43.5113 41.6113 43.475 43.9948 43.475C50.1416 43.475 52.4862 47.0516 52.5176 51.2816C52.5176 57.0789 48.1969 59.2772 43.587 59.2772C42.7088 59.2772 41.8621 59.2772 41.6422 59.2772V67.5602C41.6422 67.7792 41.5798 67.8522 41.4228 67.8522H38.0984C37.9417 67.8522 37.8789 67.7792 37.8789 67.5968V43.8032H37.879ZM41.6422 55.7402C41.8936 55.7766 42.3637 55.8128 43.6812 55.8128C46.1584 55.8128 48.5419 55.1067 48.5419 51.4603C48.5419 48.5432 46.9427 47.0449 43.9948 47.0449C42.7717 47.0449 41.8936 47.0813 41.6422 47.1179V55.7402Z" fill="white"/>
<path d="M60.3451 53.0147C58.8349 53.0147 58.4346 53.9591 58.4346 54.6519C58.4346 55.5274 58.8349 56.0013 61.1462 57.0952C64.3203 58.6267 65.6762 59.9758 65.6762 62.601C65.6762 66.2475 63.3033 68.3222 59.9133 68.3222C58.2802 68.3222 56.2196 68.1666 54.9251 67.2184C54.8016 67.1455 54.7402 67.0362 54.7402 66.8536V63.4991C54.7402 63.3168 54.8636 63.2438 54.9561 63.3168C56.5584 64.5201 58.3456 64.8621 59.9479 64.8621C61.3658 64.8621 61.8585 63.9171 61.8585 63.115C61.8585 62.1672 61.5161 61.6199 59.2972 60.5627C56.1231 59.0312 54.8016 57.7151 54.8016 55.0533C54.8016 52.0995 57.0166 49.6598 60.653 49.6598C62.5326 49.6598 63.8576 49.7102 64.7206 50.2933C64.8745 50.4394 64.9055 50.5485 64.9055 50.7676V53.7575C64.9055 53.9761 64.7821 54.0857 64.6282 53.9761C63.5187 53.247 61.9474 53.0147 60.3451 53.0147Z" fill="white"/>
</svg>
