<svg width="91" height="138" viewBox="0 0 91 138" fill="none" xmlns="http://www.w3.org/2000/svg">
<path d="M77.9226 120.612V128.898C77.9226 133.68 74.0464 137.556 69.2646 137.556H60.978L77.9226 120.612Z" fill="white"/>
<path d="M77.6292 66.0497L6.41562 137.263C3.43631 136.466 1.09021 134.12 0.293457 131.141L71.5071 59.9275C74.4863 60.7242 76.8322 63.0703 77.6292 66.0497Z" fill="white"/>
<path d="M0 76.579L16.9447 59.6343H8.65801C3.87632 59.6343 0 63.5106 0 68.2923V76.579Z" fill="white"/>
<path d="M40.7549 137.556H28.5107L77.9229 88.1443V100.388L40.7549 137.556Z" fill="white" fill-opacity="0.5"/>
<path d="M51.5766 59.6343L0 111.211V98.9667L39.3325 59.6343H51.5766Z" fill="white" fill-opacity="0.5"/>
<path fill-rule="evenodd" clip-rule="evenodd" d="M79.4204 18.6068L47.4435 30.7269L48.7699 34.2262L43.4002 36.2615L42.0739 32.7622C40.9497 29.7966 42.4427 26.4811 45.4083 25.3572L80.07 12.2194C81.5527 11.6573 83.2105 12.4038 83.7725 13.8866L87.1341 22.7556C87.6961 24.2384 86.9496 25.8961 85.4669 26.4582L50.8052 39.5959C47.8397 40.7199 44.5242 39.2269 43.4002 36.2615L80.7468 22.106L79.4204 18.6068Z" fill="white" fill-opacity="0.5"/>
<path fill-rule="evenodd" clip-rule="evenodd" d="M28.1543 43.2959C30.3232 44.2726 32.8732 43.306 33.8498 41.1372C34.8264 38.9683 33.86 36.4183 31.6911 35.4417C29.5222 34.465 26.9722 35.4316 25.9956 37.6004C25.3585 39.0152 24.6419 40.2661 23.8648 41.3644L28.1543 43.2959ZM25.7965 48.5321C30.8573 50.811 36.8072 48.5558 39.086 43.495C41.3649 38.4342 39.1097 32.4843 34.0489 30.2055C28.9881 27.9266 23.0382 30.1818 20.7594 35.2426C20.0657 36.7831 19.2886 37.9941 18.4858 38.9422C15.4682 42.5062 12.0863 42.3585 11.397 42.0481L25.7965 48.5321Z" fill="white"/>
</svg>
