<svg width="108" height="112" viewBox="0 0 108 112" fill="none" xmlns="http://www.w3.org/2000/svg">
<path fill-rule="evenodd" clip-rule="evenodd" d="M25.7903 0H46.0226C48.8161 0 51.0806 2.26457 51.0806 5.05806V45.5226C51.0806 48.3161 48.8161 50.5806 46.0226 50.5806H5.55806C2.76457 50.5806 0.5 48.3161 0.5 45.5226V25.2903H5.55806V45.5226H46.0226V5.05806H25.7903V0Z" fill="white"/>
<path d="M8.0874 37.9354L22.25 20.2322L30.8487 31.4978L34.6422 26.6698L43.4939 37.9354H25.7906H8.0874Z" fill="#9E93EB"/>
<path fill-rule="evenodd" clip-rule="evenodd" d="M8.0871 7.5871V0H13.1452V7.5871H20.7323V12.6452H13.1452V20.2323H8.0871V12.6452H0.5V7.5871H8.0871Z" fill="#9E93EB"/>
<path fill-rule="evenodd" clip-rule="evenodd" d="M88.013 42.6323V50.3398C88.013 55.6608 83.6995 59.9742 78.3786 59.9742H77.4152C76.883 59.9742 76.4517 60.4055 76.4517 60.9376V61.1303C76.4517 65.8127 72.6558 69.6086 67.9734 69.6086C66.2705 69.6086 64.8904 70.989 64.8904 72.6916V75.0039C64.8904 76.281 65.9255 77.3161 67.2027 77.3161H78.3786C86.8919 77.3161 93.7936 84.2178 93.7936 92.7312V100.439H86.0861V92.7312C86.0861 88.4743 82.6351 85.0237 78.3786 85.0237H67.2027C61.6687 85.0237 57.1828 80.5375 57.1828 75.0039V72.6916C57.1828 66.7322 62.014 61.9011 67.9734 61.9011C68.3989 61.9011 68.7442 61.556 68.7442 61.1303V60.9376C68.7442 56.1488 72.6261 52.2667 77.4152 52.2667H78.3786C79.4426 52.2667 80.3055 51.404 80.3055 50.3398V42.6323H88.013ZM54.5939 90.0147L34.7075 60.185L41.1206 55.9096L61.0069 85.7393C63.5389 89.5376 64.8904 94.0002 64.8904 98.5654V108.146H57.1828V98.5654C57.1828 95.5221 56.282 92.547 54.5939 90.0147Z" fill="#9E93EB"/>
<path fill-rule="evenodd" clip-rule="evenodd" d="M68.7437 104.292C85.7708 104.292 99.5738 90.4895 99.5738 73.4624C99.5738 60.8321 91.9776 49.9587 81.073 45.1942C77.3071 43.5489 73.1428 42.6323 68.7437 42.6323C57.3373 42.6323 47.3677 48.8226 42.027 58.0641C39.4123 62.5883 37.9136 67.8386 37.9136 73.4624C37.9136 88.3687 48.5003 100.82 62.5696 103.675C64.5581 104.079 66.6218 104.292 68.7437 104.292ZM68.7437 112C90.0273 112 107.281 94.7459 107.281 73.4624C107.281 57.6595 97.7695 44.0782 84.1587 38.1314C79.4383 36.0689 74.2245 34.9247 68.7437 34.9247C54.4736 34.9247 42.015 42.6809 35.3537 54.2075C32.0797 59.8727 30.2061 66.4489 30.2061 73.4624C30.2061 92.1065 43.4457 107.658 61.0362 111.229C63.5265 111.734 66.1042 112 68.7437 112Z" fill="white"/>
</svg>
