<svg width="63" height="83" viewBox="0 0 63 83" fill="none" xmlns="http://www.w3.org/2000/svg">
<path fill-rule="evenodd" clip-rule="evenodd" d="M44.8369 41.3594C45.3682 41.8829 45.6668 42.593 45.6668 43.3334V76.8334C45.6668 79.9171 43.1299 82.4167 40.0002 82.4167H6.00016C2.87055 82.4167 0.333496 79.9171 0.333496 76.8334V32.1667C0.333496 29.0831 2.87055 26.5834 6.00016 26.5834H28.6668C29.4182 26.5834 30.139 26.8775 30.6703 27.401L44.8369 41.3594ZM40.0002 76.8334V46.125H25.8335V32.1667H6.00016V76.8334H40.0002ZM31.5002 36.1147V40.5417H35.9933L31.5002 36.1147Z" fill="white"/>
<path fill-rule="evenodd" clip-rule="evenodd" d="M34.3332 57.2917H11.6665V51.7084H34.3332V57.2917ZM34.3332 68.4584H11.6665V62.875H34.3332V68.4584Z" fill="white" fill-opacity="0.5"/>
<path fill-rule="evenodd" clip-rule="evenodd" d="M62.6207 17.9018C62.1886 18.945 61.1705 19.6251 60.0415 19.6251H46.0832C44.5413 19.6251 43.2915 18.3752 43.2915 16.8335V2.87513C43.2915 1.74601 43.9716 0.728055 45.0148 0.29596C46.058 -0.136134 47.2587 0.102694 48.0572 0.901111L62.0155 14.8594C62.8139 15.6579 63.0526 16.8586 62.6207 17.9018ZM48.8748 9.6148V14.0418H53.3019L48.8748 9.6148Z" fill="white" fill-opacity="0.5"/>
<path fill-rule="evenodd" clip-rule="evenodd" d="M62.833 16.8334C62.833 16.093 62.5391 15.3829 62.0156 14.8594L48.0571 0.901001C47.5337 0.377563 46.8237 0.083374 46.083 0.083374H23.75C20.666 0.083374 18.1665 2.58313 18.1665 5.66675V31.5H23.75V5.66675H44.9268L57.25 17.9897V50.3334H43V55.9167H57.25C60.3335 55.9167 62.833 53.417 62.833 50.3334V16.8334Z" fill="white"/>
</svg>
