<svg width="82" height="62" viewBox="0 0 82 62" fill="none" xmlns="http://www.w3.org/2000/svg">
<path fill-rule="evenodd" clip-rule="evenodd" d="M29.75 35.5V27.4791H36.25V35.5H44.375V41.9166H36.25V49.9375H29.75V41.9166H21.625V35.5H29.75Z" fill="#9E93EB"/>
<path d="M29.75 16.25L23.25 9.83337H7C3.41015 9.83337 0.5 12.7062 0.5 16.25V22.6667H7H27.0577H59H65.5C65.5 19.1229 62.5899 16.25 59 16.25H29.75Z" fill="#9E93EB"/>
<path d="M7 54.75H59V22.6666H65.5V54.75C65.5 58.2939 62.5899 61.1666 59 61.1666H7C3.41015 61.1666 0.5 58.2939 0.5 54.75V22.6666H7V54.75Z" fill="white"/>
<path d="M74.4046 42.2232V7.59527H39.7767H32.8511C32.8511 3.77037 35.9518 0.669678 39.7767 0.669678H74.4046C78.2296 0.669678 81.3302 3.77037 81.3302 7.59527V42.2232C81.3302 46.0482 78.2296 49.1488 74.4046 49.1488V42.2232Z" fill="#9E93EB"/>
</svg>
