<svg width="144" height="24" viewBox="0 0 144 24" fill="none" xmlns="http://www.w3.org/2000/svg">
<path d="M36.8598 17.9108C36.8598 19.6123 36.1353 20.4181 34.6862 20.4181C33.2372 20.4181 32.5126 19.6122 32.5126 17.9108V0.359232H28.4372V17.8212C28.4372 21.8508 30.7919 24 34.6862 24C38.5805 24 40.9352 21.7612 40.9352 17.8212V0.359232H36.8598V17.9108ZM9.50935 11.3737C11.5018 10.5678 12.3169 8.50812 12.3169 6.44858C12.3169 2.50839 10.415 0.269791 6.06789 0.269791H0V23.5521H6.43027C11.0492 23.5521 12.7699 20.6865 12.7699 16.8359C12.7699 13.8808 11.502 12.2689 9.50954 11.3734L9.50935 11.3737ZM4.07541 3.58297H5.61504C7.42636 3.58297 8.24146 4.65755 8.24146 6.89634C8.24146 8.86643 7.06411 9.85139 5.5244 9.85139H3.98477L4.07541 3.58297ZM5.70559 20.3287H4.07541V13.1648H5.34334C7.78866 13.1648 8.69434 14.3289 8.69434 16.7466C8.69434 19.0749 7.87924 20.3285 5.70572 20.3285L5.70559 20.3287ZM48.634 13.3438H53.8868V9.85139H48.634V3.85166H55.4265V0.359232H44.5586V23.6415H55.8793V20.1491H48.634V13.3438ZM20.1065 0.359232H16.1216V23.6415H26.5366V20.1491H20.197V0.358316L20.1065 0.359232ZM123.261 23.6415H127.337V0.359232H123.261V23.6415ZM113.571 0C109.314 0 107.322 2.68654 107.322 5.99973V17.9994C107.322 21.3127 109.314 23.9991 113.571 23.9991C113.571 23.9991 115.835 23.9095 117.556 22.5663L119.729 23.9991V17.9097V11.91H113.209V15.0441H116.107V17.9097V17.9993C116.107 20.5962 113.843 20.5066 113.843 20.5066H113.571C111.941 20.5066 111.397 19.7006 111.397 17.9097V6.08927C111.397 4.38785 111.941 3.49236 113.571 3.49236C115.201 3.49236 115.744 4.2983 115.744 6.08927V7.88025H119.82V5.99978C119.82 2.68641 117.827 5.31365e-05 113.571 5.31365e-05L113.571 0ZM73.1782 0C68.9215 0 67.0197 2.68654 67.0197 5.99973V17.9994C67.0197 21.3127 69.0122 23.9991 73.2687 23.9991C77.5252 23.9991 79.5177 21.3125 79.5177 17.9994V5.99973C79.4271 2.68636 77.4347 0 73.178 0H73.1782ZM75.3518 17.9097C75.3518 19.6112 74.8084 20.5067 73.1782 20.5067C71.548 20.5067 71.0046 19.7007 71.0046 17.9097V6.08935C71.0046 4.38793 71.548 3.49243 73.1782 3.49243C74.8084 3.49243 75.3518 4.29838 75.3518 6.08935V17.9097ZM140.377 0.358132V14.1486L134.853 0.358132H131.23V23.6404H134.853V9.84992L140.377 23.6404H144V0.358132H140.377ZM99.5325 23.6404H103.608V0.358132H99.5325V23.6404ZM95.4571 7.16338C95.4571 2.14861 93.1929 0.268141 88.574 0.268141H82.8683V23.5504H86.9437V14.0583C87.6682 14.0583 88.4833 14.0583 89.0266 13.9687L91.9248 23.6399H96.0002L92.5588 13.0732C94.0078 12.4463 95.4569 10.924 95.4569 7.16291L95.4571 7.16338ZM88.4835 10.7453H87.0345V3.58132H88.4835C90.6571 3.58132 91.4722 4.38727 91.4722 7.1632C91.4722 9.93918 90.6571 10.7451 88.4835 10.7451V10.7453Z" fill="#0000FF"/>
</svg>
