<svg width="72" height="50" viewBox="0 0 72 50" fill="none" xmlns="http://www.w3.org/2000/svg">
<path d="M53.4054 14.6447C53.4054 14.6447 47.5676 33.0156 47.0919 34.5321C46.9189 32.9722 42.6378 0 42.6378 0C32.6919 0 27.373 7.10571 24.5622 14.6014C24.5622 14.6014 17.4703 33.0156 16.8648 34.5754C16.8216 33.1456 15.7838 14.818 15.7838 14.818C15.1783 5.63258 6.78919 0.0433261 0 0.0433261L8.21622 50C18.6378 49.9567 24.2594 42.8943 27.2 35.3986C27.2 35.3986 33.4703 19.1508 33.7298 18.4143C33.773 19.1074 38.227 50 38.227 50C48.6919 50 54.3135 43.3709 57.3405 36.1352L72 0.0433261C61.6648 0.0433261 56.2162 7.10572 53.4054 14.6447Z" fill="white"/>
</svg>
