<svg width="31" height="31" viewBox="0 0 31 31" fill="none" xmlns="http://www.w3.org/2000/svg">
<path d="M23.207 2.32457C20.8863 0.859082 18.1115 0 15.135 0C12.1584 0 9.38369 0.859082 7.06299 2.32457V27.9454C9.38369 29.4109 12.1584 30.27 15.135 30.27C18.1115 30.27 20.8863 29.4109 23.207 27.9454V2.32457Z" fill="#F9F9F9"/>
<path d="M23.207 2.32457V27.9454C27.4448 25.3176 30.27 20.4664 30.27 15.1097C30.27 9.7531 27.4448 5.00289 23.207 2.32457Z" fill="#D90026"/>
<path d="M7.063 2.32457C2.8252 5.00289 0 9.85417 0 15.1603C0 20.4664 2.8252 25.3176 7.063 27.996V2.32457Z" fill="#D90026"/>
<path d="M20.6341 14.9581C20.4323 14.857 20.3819 14.6549 20.4323 14.5538L20.9368 12.7346L19.1711 13.0884C19.1206 13.0884 18.9188 13.0884 18.8684 12.7346L18.717 12.1282L17.5062 13.5432C17.5062 13.5432 16.699 14.4022 16.9513 13.0884L17.4558 10.309L16.4972 10.8143C16.4468 10.8143 16.245 10.8648 15.9927 10.3595L15.1351 8.59081L14.227 10.2584C13.9747 10.7638 13.7729 10.7132 13.7225 10.7132L12.7639 10.2079L13.2684 12.9873C13.5207 14.3012 12.7135 13.4421 12.7135 13.4421L11.5027 12.0271L11.3513 12.6335C11.2504 12.9873 11.0991 12.9873 11.0486 12.9873L9.28285 12.6335L9.78735 14.4528C9.78735 14.6044 9.78735 14.756 9.58555 14.857L9.08105 15.1603C9.08105 15.1603 11.0991 16.7773 11.7549 17.3332C11.9063 17.4343 12.209 17.7375 12.1081 18.0912L11.8558 18.7987L14.6306 18.3944C14.7819 18.3944 15.0846 18.3944 15.0342 18.8493L14.8828 21.7297H15.3873L15.236 18.8493C15.236 18.3944 15.5387 18.3944 15.6396 18.3944L18.4143 18.7987L18.1621 18.0912C18.0612 17.7375 18.3639 17.4343 18.5152 17.3332C19.1711 16.7773 21.1891 15.1603 21.1891 15.1603L20.6341 14.9581Z" fill="#D90026"/>
</svg>
