<svg width="31" height="31" viewBox="0 0 31 31" fill="none" xmlns="http://www.w3.org/2000/svg">
<path d="M15.135 30.27C6.77617 30.27 -3.65376e-07 23.4938 0 15.135C3.65376e-07 6.77617 6.77617 -3.65376e-07 15.135 0C23.4938 3.65376e-07 30.27 6.77617 30.27 15.135C30.27 23.4938 23.4938 30.27 15.135 30.27Z" fill="#D90026"/>
<path d="M17.3764 9.45808L15.8887 9.29787L16.9873 8.4129L16.7188 7.18005L17.8448 7.90328L18.9434 7.01831L18.7832 8.50597L19.7216 9.10866L18.4887 9.37721L18.1408 10.7443L17.3764 9.45808Z" fill="#FFDB44"/>
<path d="M8.32425 17.8309L4.63509 19.6755L5.86481 15.9863L3.40538 13.5269H7.09453L8.32425 9.83775L10.1688 13.5269H13.2431L10.7837 15.9863L12.0134 19.6755L8.32425 17.8309Z" fill="#FFDB44"/>
<path d="M17.3764 20.8245L15.8887 20.9847L16.9873 21.8696L16.7188 23.1025L17.8448 22.3793L18.9434 23.2642L18.7832 21.7766L19.7216 21.1739L18.4887 20.9053L18.1408 19.5382L17.3764 20.8245Z" fill="#FFDB44"/>
<path d="M20.9673 13.459L19.5878 12.8797L20.8937 12.3462L20.9893 11.088L21.8612 12.1033L23.1671 11.5698L22.5878 12.9494L23.3144 13.7955L22.0563 13.6999L21.3316 14.9102L20.9673 13.459Z" fill="#FFDB44"/>
<path d="M20.9673 17.6814L19.5878 18.2607L20.8937 18.7942L20.9893 20.0524L21.8612 19.0371L23.1671 19.5706L22.5878 18.191L23.3144 17.345L22.0563 17.4405L21.3316 16.2302L20.9673 17.6814Z" fill="#FFDB44"/>
</svg>
