<svg width="32" height="32" viewBox="0 0 32 32" fill="none" xmlns="http://www.w3.org/2000/svg">
<circle cx="16" cy="16" r="16" fill="#0052B5"/>
<path d="M15.9151 9.50695L14.5039 10.2214L14.9684 8.80425L14.0206 7.86576L15.4353 7.85873L15.9915 6.39362L16.6143 7.85286L17.7933 7.847L16.8548 8.79487L17.3334 10.2073L15.9151 9.50695Z" fill="#FFDB44"/>
<path d="M15.9151 22.7986L14.5039 22.0842L14.9684 23.5013L14.0206 24.4398L15.4353 24.4468L15.9915 25.9119L16.6143 24.4527L17.7933 24.4585L16.8548 23.5107L17.3334 22.0983L15.9151 22.7986Z" fill="#FFDB44"/>
<path d="M22.4703 16.1307L21.478 14.8989L22.9608 15.0586L23.6816 13.9363L23.9827 15.3186L25.5315 15.558L24.2337 16.4706L24.4846 17.6226L23.3623 16.9017L22.0803 17.6636L22.4703 16.1307Z" fill="#FFDB44"/>
<path d="M20.719 11.7299L19.1668 11.4254L20.4045 10.5936L20.2342 9.27065L21.3542 10.1351L22.6937 9.32179L22.2875 10.8555L23.2208 11.5759L21.8978 11.7462L21.4067 13.1543L20.719 11.7299Z" fill="#FFDB44"/>
<path d="M20.7397 20.6032L21.414 19.1724L21.9184 20.5758L23.2429 20.7336L22.1311 21.6086L22.5927 23.1062L21.2047 22.3378L20.2782 23.0669L20.4361 21.7424L19.1905 20.9223L20.7397 20.6032Z" fill="#FFDB44"/>
<path d="M22.4703 16.1307L21.478 14.8989L22.9608 15.0586L23.6816 13.9363L23.9827 15.3186L25.5315 15.558L24.2337 16.4706L24.4846 17.6226L23.3623 16.9017L22.0803 17.6636L22.4703 16.1307Z" fill="#FFDB44"/>
<path d="M9.56681 16.1307L10.5591 14.8989L9.07636 15.0586L8.35553 13.9363L8.05441 15.3186L6.50566 15.558L7.80348 16.4706L7.55255 17.6226L8.67488 16.9017L9.95688 17.6636L9.56681 16.1307Z" fill="#FFDB44"/>
<path d="M11.3182 11.7299L12.8704 11.4254L11.6326 10.5936L11.8029 9.27065L10.683 10.1351L9.34341 9.32179L9.74966 10.8555L8.81635 11.5759L10.1393 11.7462L10.6304 13.1543L11.3182 11.7299Z" fill="#FFDB44"/>
<path d="M11.2974 20.6032L10.6231 19.1724L10.1187 20.5758L8.79421 20.7336L9.90599 21.6086L9.4444 23.1062L10.8325 22.3378L11.7589 23.0669L11.6011 21.7424L12.8466 20.9223L11.2974 20.6032Z" fill="#FFDB44"/>
<path d="M9.56681 16.1307L10.5591 14.8989L9.07636 15.0586L8.35553 13.9363L8.05441 15.3186L6.50566 15.558L7.80348 16.4706L7.55255 17.6226L8.67488 16.9017L9.95688 17.6636L9.56681 16.1307Z" fill="#FFDB44"/>
</svg>
