<svg width="32" height="32" viewBox="0 0 32 32" fill="none" xmlns="http://www.w3.org/2000/svg">
<circle cx="16" cy="16" r="16" fill="#CC0000"/>
<path d="M14.6506 5.39758L14.0135 7.45929H11.9518L13.6198 8.73347L12.9826 10.7952L14.6506 9.52096L16.3186 10.7952L15.6815 8.73347L17.3494 7.45929H15.2877L14.6506 5.39758ZM14.6506 6.47172L15.0583 7.7912H16.3779L15.3103 8.60671L15.7181 9.92619L14.6506 9.1107L13.5831 9.92619L13.9909 8.60671L12.9234 7.7912H14.2429L14.6506 6.47172Z" fill="#FFD700"/>
<path d="M10.1123 15.627L11.5193 17.0401L12.8461 15.7258C14.8644 17.8848 16.9812 19.966 18.9839 22.1333C19.2848 22.4355 19.7744 22.4372 20.0774 22.1371C20.3804 21.8369 20.3821 21.3486 20.0812 21.0464C17.9316 19.0236 15.7754 16.9843 13.6252 14.9541L15.4127 13.1835L12.9259 12.8401L10.1123 15.627Z" fill="#FFD700"/>
<path d="M14.6517 11.052C15.8091 11.7022 16.6879 12.6352 17.2062 13.6106C17.7316 14.5993 17.9625 15.6314 17.9673 16.4566C17.977 18.1486 16.592 19.5203 14.8956 19.5203C13.9903 19.5203 13.1766 19.1298 12.6144 18.5084L12.3034 18.7696C12.2505 18.7493 12.1943 18.7389 12.1375 18.7389C12.0011 18.7389 11.8715 18.7988 11.7833 18.9027C11.5615 18.9316 11.3759 19.0846 11.3056 19.2964C11.0717 19.7642 10.6615 20.1311 10.165 20.299C10.1603 20.3007 10.1561 20.3028 10.1519 20.3049C9.92235 20.3888 9.69224 20.5403 9.49632 20.7365C9.10909 21.1261 8.91985 21.6246 9.02639 21.9743C9.01587 22.0047 9.01046 22.0367 9.01035 22.0688C9.01037 22.2303 9.14162 22.3612 9.30355 22.3612C9.34408 22.3611 9.38414 22.3526 9.42121 22.3362C9.77131 22.415 10.2468 22.2212 10.6187 21.8482C10.8295 21.6362 10.9874 21.3853 11.065 21.1392C11.2378 20.6465 11.6093 20.2451 12.0811 20.0193C12.0924 20.0139 12.1015 20.0084 12.1096 20.0027C12.2678 19.9273 12.3835 19.7848 12.4247 19.6148C13.1484 20.4663 14.2337 21.0099 15.447 21.0384C17.6723 21.0907 19.3356 19.4569 19.4125 17.1077C19.4512 15.9253 18.9926 14.4008 17.9475 13.1505C17.1488 12.195 15.9776 11.4016 14.6516 11.052L14.6517 11.052Z" fill="#FFD700"/>
</svg>
