<svg width="31" height="31" viewBox="0 0 31 31" fill="none" xmlns="http://www.w3.org/2000/svg">
<circle cx="15.1367" cy="15.1367" r="15.1367" fill="#F2F0F2"/>
<mask id="mask0_825_5655" style="mask-type:alpha" maskUnits="userSpaceOnUse" x="0" y="0" width="31" height="31">
<circle cx="15.1367" cy="15.1367" r="15.1367" fill="#FCFCFC"/>
</mask>
<g mask="url(#mask0_825_5655)">
<rect x="4.91406" y="26.8672" width="20.813" height="3.78418" fill="#D90026"/>
<rect x="4.91406" y="26.8672" width="20.813" height="3.78418" fill="#D90026"/>
<rect x="0.375" y="19.3008" width="29.895" height="3.78418" fill="#D90026"/>
<rect x="0.375" y="19.3008" width="29.895" height="3.78418" fill="#D90026"/>
<rect x="0.375" y="11.3535" width="29.895" height="3.78418" fill="#D90026"/>
<rect x="0.375" y="11.3535" width="29.895" height="3.78418" fill="#D90026"/>
<rect x="0.375" y="3.78711" width="29.895" height="3.78418" fill="#D90026"/>
<rect x="0.375" y="3.78711" width="29.895" height="3.78418" fill="#D90026"/>
<rect width="15.5151" height="15.1367" fill="#0052B5"/>
<path d="M12.4824 12.6785L11.3472 13.2461L11.7256 12.1108L10.9688 11.354H12.104L12.4824 10.2188L13.05 11.354H13.9961L13.2393 12.1108L13.6177 13.2461L12.4824 12.6785Z" fill="#EFEFEF"/>
<path d="M7.20117 12.6785L6.06592 13.2461L6.44434 12.1108L5.6875 11.354H6.82275L7.20117 10.2188L7.7688 11.354H8.71484L7.95801 12.1108L8.33643 13.2461L7.20117 12.6785Z" fill="#EFEFEF"/>
<path d="M1.88867 12.6785L0.753418 13.2461L1.13184 12.1108L0.375 11.354H1.51025L1.88867 10.2188L2.4563 11.354H3.40234L2.64551 12.1108L3.02393 13.2461L1.88867 12.6785Z" fill="#EFEFEF"/>
<path d="M12.4824 8.50854L11.3472 9.07617L11.7256 7.94092L10.9688 7.18408H12.104L12.4824 6.04883L13.05 7.18408H13.9961L13.2393 7.94092L13.6177 9.07617L12.4824 8.50854Z" fill="#EFEFEF"/>
<path d="M12.4824 4.35034L11.3472 4.91797L11.7256 3.78271L10.9688 3.02588H12.104L12.4824 1.89062L13.05 3.02588H13.9961L13.2393 3.78271L13.6177 4.91797L12.4824 4.35034Z" fill="#EFEFEF"/>
<path d="M7.20117 4.35034L6.06592 4.91797L6.44434 3.78271L5.6875 3.02588H6.82275L7.20117 1.89062L7.7688 3.02588H8.71484L7.95801 3.78271L8.33643 4.91797L7.20117 4.35034Z" fill="#EFEFEF"/>
<path d="M7.20117 8.50854L6.06592 9.07617L6.44434 7.94092L5.6875 7.18408H6.82275L7.20117 6.04883L7.7688 7.18408H8.71484L7.95801 7.94092L8.33643 9.07617L7.20117 8.50854Z" fill="#EFEFEF"/>
<path d="M1.88867 8.50854L0.753418 9.07617L1.13184 7.94092L0.375 7.18408H1.51025L1.88867 6.04883L2.4563 7.18408H3.40234L2.64551 7.94092L3.02393 9.07617L1.88867 8.50854Z" fill="#EFEFEF"/>
</g>
</svg>
